<svg xmlns="http://www.w3.org/2000/svg" xmlns:xlink="http://www.w3.org/1999/xlink" width="843.998" height="653.471" viewBox="0 0 843.998 653.471">
  <defs>
    <linearGradient id="linear-gradient" x1="0.5" x2="0.5" y2="1" gradientUnits="objectBoundingBox">
      <stop offset="0" stop-color="#fcfcfc"/>
      <stop offset="1" stop-color="#c1c6ef"/>
    </linearGradient>
    <linearGradient id="linear-gradient-2" x1="0.5" x2="0.5" y2="1" gradientUnits="objectBoundingBox">
      <stop offset="0" stop-color="#fff"/>
      <stop offset="1" stop-color="#c1c6ef"/>
    </linearGradient>
    <linearGradient id="linear-gradient-4" x1="0.5" x2="0.5" y2="1" gradientUnits="objectBoundingBox">
      <stop offset="0" stop-color="#f8f8f8"/>
      <stop offset="1" stop-color="#c1c6ef"/>
    </linearGradient>
  </defs>
  <g id="Group_25" data-name="Group 25" transform="translate(44 -426.531)">
    <path id="Union_5" data-name="Union 5" d="M71.026,650.419a85.409,85.409,0,0,1-16.7-5.449,87.665,87.665,0,0,1-15.11-8.62,90.72,90.72,0,0,1-13.165-11.417A93.349,93.349,0,0,1,15.192,611.1a95.081,95.081,0,0,1-8.2-15.882,96.536,96.536,0,0,1-5.183-17.55A98.846,98.846,0,0,1,0,558.819v-.174c0-.086,0-.173,0-.26H0V130.464H41.373v427.92h0c0,.145,0,.289,0,.434a51.89,51.89,0,0,0,3.739,19.467,50.86,50.86,0,0,0,4.386,8.5,50.044,50.044,0,0,0,5.81,7.4,48.592,48.592,0,0,0,7.042,6.107,46.915,46.915,0,0,0,8.081,4.611,45.61,45.61,0,0,0,37.04,0,46.99,46.99,0,0,0,8.082-4.611,48.571,48.571,0,0,0,7.042-6.107,49.966,49.966,0,0,0,5.809-7.4,50.8,50.8,0,0,0,4.387-8.5,51.883,51.883,0,0,0,3.739-19.467c0-.166,0-.3,0-.434H177.9c0,.144,0,.289,0,.433a98.83,98.83,0,0,1-1.807,18.844,96.534,96.534,0,0,1-5.183,17.55,95.188,95.188,0,0,1-8.2,15.882,93.354,93.354,0,0,1-10.862,13.838,90.8,90.8,0,0,1-13.165,11.417,87.664,87.664,0,0,1-15.109,8.62,85.357,85.357,0,0,1-52.551,5.449Zm65.506-92.034V130.464a18.041,18.041,0,0,0-1.3-6.772,17.425,17.425,0,0,0-3.546-5.53,16.471,16.471,0,0,0-5.26-3.727,15.851,15.851,0,0,0-12.883,0,16.482,16.482,0,0,0-5.261,3.727,17.416,17.416,0,0,0-3.546,5.53,18.051,18.051,0,0,0-1.3,6.772H62.06a63.167,63.167,0,0,1,4.551-23.7,61.9,61.9,0,0,1,5.341-10.343,60.821,60.821,0,0,1,7.072-9.01A59.044,59.044,0,0,1,87.6,79.979a57.078,57.078,0,0,1,9.839-5.613,55.515,55.515,0,0,1,45.092,0,57.1,57.1,0,0,1,9.839,5.613,59.092,59.092,0,0,1,8.572,7.435,60.671,60.671,0,0,1,7.073,9.01,61.893,61.893,0,0,1,5.34,10.343,63.176,63.176,0,0,1,4.553,23.7h0V558.385Zm70.334-117.23V130.464h41.373V441.155a20.687,20.687,0,0,1-41.373,0Zm-144.806,0V130.464h41.373V441.155a20.687,20.687,0,0,1-41.373,0ZM206.866,130.463a91.993,91.993,0,0,0-1.68-17.528,89.818,89.818,0,0,0-4.822-16.327,88.469,88.469,0,0,0-7.629-14.774,86.8,86.8,0,0,0-10.1-12.872,84.3,84.3,0,0,0-12.245-10.62,81.586,81.586,0,0,0-14.055-8.019,79.221,79.221,0,0,0-64.417,0,81.578,81.578,0,0,0-14.055,8.019A84.256,84.256,0,0,0,65.61,68.963a86.788,86.788,0,0,0-10.1,12.872,88.47,88.47,0,0,0-7.629,14.774,89.81,89.81,0,0,0-4.822,16.327,92.014,92.014,0,0,0-1.68,17.528H0a137.912,137.912,0,0,1,2.522-26.293A134.678,134.678,0,0,1,9.754,79.682,132.652,132.652,0,0,1,21.2,57.52,130.319,130.319,0,0,1,36.355,38.211a126.49,126.49,0,0,1,18.369-15.93A122.22,122.22,0,0,1,75.807,10.253a118.825,118.825,0,0,1,96.626,0,122.236,122.236,0,0,1,21.083,12.028,126.585,126.585,0,0,1,18.369,15.93A130.277,130.277,0,0,1,227.042,57.52a132.844,132.844,0,0,1,11.444,22.162,134.781,134.781,0,0,1,7.231,24.489,137.9,137.9,0,0,1,2.522,26.293Z" transform="matrix(0.545, -0.839, 0.839, 0.545, -44, 634.722)" fill="url(#linear-gradient)"/>
    <path id="Subtraction_32" data-name="Subtraction 32" d="M-17654,4162.7l-255.582-165.974,20.328-31.306-20.328,31.3a137.788,137.788,0,0,1-20.678-16.435,134.6,134.6,0,0,1-16.6-19.4,132.449,132.449,0,0,1-12.354-21.667,129.871,129.871,0,0,1-7.937-23.227,126.159,126.159,0,0,1-3.354-24.084,121.521,121.521,0,0,1,1.393-24.233,118.946,118.946,0,0,1,6.309-23.678,119.338,119.338,0,0,1,11.4-22.424,119.148,119.148,0,0,1,15.848-19.533,119.116,119.116,0,0,1,19.064-15.4,122.289,122.289,0,0,1,21.572-11.131,126.994,126.994,0,0,1,23.361-6.729,130.624,130.624,0,0,1,23.875-2.2h.574a133.2,133.2,0,0,1,24.818,2.471,134.8,134.8,0,0,1,24.477,7.275,137.826,137.826,0,0,1,23.426,12.2l-18.336,28.237,18.336-28.232L-17654,3866.71v49.33l-142.916-92.811a91.906,91.906,0,0,0-15.613-8.136,89.717,89.717,0,0,0-16.322-4.848,88.4,88.4,0,0,0-16.547-1.651h-.359a87.055,87.055,0,0,0-15.936,1.467,84.612,84.612,0,0,0-15.578,4.483,81.661,81.661,0,0,0-14.379,7.424,79.449,79.449,0,0,0-12.713,10.265,79.483,79.483,0,0,0-10.559,13.025,79.188,79.188,0,0,0-7.6,14.947,79.451,79.451,0,0,0-4.209,15.785,81.278,81.278,0,0,0-.926,16.155,84.083,84.083,0,0,0,2.234,16.056,86.338,86.338,0,0,0,5.291,15.488,88.258,88.258,0,0,0,8.234,14.441,89.615,89.615,0,0,0,11.068,12.939,92.222,92.222,0,0,0,13.783,10.955L-17654,4113.367V4162.7h0Zm0-74-221.783-144.026a63.219,63.219,0,0,1-17.395-16.723,62.081,62.081,0,0,1-5.764-10.112,60.6,60.6,0,0,1-3.7-10.838,59.275,59.275,0,0,1-1.57-11.239,56.929,56.929,0,0,1,.654-11.311,55.114,55.114,0,0,1,8.268-21.513,55.17,55.17,0,0,1,16.289-16.3,56.977,56.977,0,0,1,10.066-5.191,59.064,59.064,0,0,1,10.906-3.144,60.575,60.575,0,0,1,11.119-1.024h.287a61.92,61.92,0,0,1,11.586,1.155,63.233,63.233,0,0,1,22.352,9.088L-17654,3950.569V3999.9l-181.219-117.687a18.081,18.081,0,0,0-6.391-2.6,17.666,17.666,0,0,0-3.389-.331,17.344,17.344,0,0,0-3.18.3,16.431,16.431,0,0,0-5.988,2.382,15.7,15.7,0,0,0-4.658,4.659,15.654,15.654,0,0,0-2.359,6.147,16.594,16.594,0,0,0,.256,6.44,17.524,17.524,0,0,0,2.707,5.985,18.1,18.1,0,0,0,4.975,4.781L-17654,4039.369V4088.7h0Z" transform="translate(18454 -3266)" opacity="0.999" fill="url(#linear-gradient-2)"/>
    <path id="Subtraction_36" data-name="Subtraction 36" d="M-17374.928,3971.686h0l-75.963,0-280.326-182.045a17.939,17.939,0,0,0-6.389-2.6,17.627,17.627,0,0,0-3.393-.334,17.073,17.073,0,0,0-3.178.3,16.3,16.3,0,0,0-5.988,2.379,15.73,15.73,0,0,0-4.658,4.653,15.685,15.685,0,0,0-2.359,6.15,16.509,16.509,0,0,0,.258,6.444,17.427,17.427,0,0,0,2.7,5.983,18.1,18.1,0,0,0,4.975,4.78l237.582,154.287h-75.963l-184.152-119.589a63.1,63.1,0,0,1-17.4-16.723,62.067,62.067,0,0,1-5.762-10.112,60.757,60.757,0,0,1-3.7-10.839,58.877,58.877,0,0,1-1.57-11.242,56.8,56.8,0,0,1,.652-11.305,55.187,55.187,0,0,1,8.266-21.517,55.274,55.274,0,0,1,16.289-16.3,57.068,57.068,0,0,1,10.066-5.2,59.586,59.586,0,0,1,10.906-3.138,60.754,60.754,0,0,1,11.121-1.027l.117,0h.025l.146,0a61.748,61.748,0,0,1,11.586,1.153,63.165,63.165,0,0,1,22.35,9.09l333.758,216.743Zm-250.689,0,0,0h-75.955l-104.006-67.543a138.8,138.8,0,0,1-14.418-10.75v-72.516a86.932,86.932,0,0,0,3.863,10.229,88.374,88.374,0,0,0,8.234,14.448,89.165,89.165,0,0,0,11.07,12.933,92.048,92.048,0,0,0,13.779,10.962l157.436,102.237Zm204.514-68.481a20.612,20.612,0,0,1-11.246-3.337l-260.568-169.215a91.644,91.644,0,0,0-15.613-8.14,89.584,89.584,0,0,0-16.322-4.848,88.623,88.623,0,0,0-16.545-1.646c-.141,0-.285,0-.426,0a86.892,86.892,0,0,0-15.873,1.47,84.334,84.334,0,0,0-15.574,4.481,81.872,81.872,0,0,0-14.381,7.421,79.492,79.492,0,0,0-12.711,10.27,79.113,79.113,0,0,0-10.561,13.024,79.64,79.64,0,0,0-7.605,14.946c-.52,1.367-1.016,2.787-1.471,4.22v-72.481c2.434-1.862,4.959-3.647,7.512-5.305a122.346,122.346,0,0,1,21.57-11.134,126.464,126.464,0,0,1,23.363-6.729,130.423,130.423,0,0,1,23.871-2.2h.58a133.116,133.116,0,0,1,24.816,2.474,134.384,134.384,0,0,1,24.475,7.276,137.416,137.416,0,0,1,23.43,12.206l260.566,169.21a20.5,20.5,0,0,1,5.867,5.752,20.594,20.594,0,0,1,3.1,7.3,20.663,20.663,0,0,1,.139,7.927,20.667,20.667,0,0,1-3.021,7.638,20.736,20.736,0,0,1-7.633,7A20.86,20.86,0,0,1-17421.1,3903.205Z" transform="translate(17820 -2891.688)" fill="url(#linear-gradient-2)"/>
    <path id="Subtraction_34" data-name="Subtraction 34" d="M-17832.7,3862.162h-75.967l-15.5-10.066a63.291,63.291,0,0,1-17.4-16.723,62.475,62.475,0,0,1-5.762-10.112,60.644,60.644,0,0,1-3.7-10.844,59.2,59.2,0,0,1-1.57-11.238,57.113,57.113,0,0,1,.652-11.306,55.062,55.062,0,0,1,8.271-21.512,55.2,55.2,0,0,1,16.289-16.307,57.439,57.439,0,0,1,10.066-5.2,59.792,59.792,0,0,1,10.9-3.138,60.707,60.707,0,0,1,11.121-1.022h.289a62.065,62.065,0,0,1,11.586,1.153,63.131,63.131,0,0,1,22.35,9.09l86.826,56.388v49.333l-109.357-71.021a17.936,17.936,0,0,0-6.389-2.6,17.662,17.662,0,0,0-3.4-.335,17.381,17.381,0,0,0-3.17.294,16.5,16.5,0,0,0-5.986,2.379,15.726,15.726,0,0,0-4.658,4.662,15.638,15.638,0,0,0-2.355,6.146,16.48,16.48,0,0,0,.254,6.444,17.526,17.526,0,0,0,2.7,5.987,18.1,18.1,0,0,0,4.975,4.776l68.93,44.764Zm-112.477,0h-54.133a132.542,132.542,0,0,1-8.285-15.525,129.755,129.755,0,0,1-7.936-23.231,126.114,126.114,0,0,1-3.361-24.081,121.272,121.272,0,0,1,1.4-24.23,118.642,118.642,0,0,1,6.309-23.683,118.908,118.908,0,0,1,11.4-22.421,119.27,119.27,0,0,1,15.846-19.536,119.575,119.575,0,0,1,19.066-15.4,122.242,122.242,0,0,1,21.57-11.129,126.136,126.136,0,0,1,23.361-6.729,130.065,130.065,0,0,1,23.873-2.2h.578a132.7,132.7,0,0,1,24.818,2.474,134.169,134.169,0,0,1,24.475,7.272,137.487,137.487,0,0,1,23.43,12.206l48.52,31.51V3776.8l-71.053-46.145,19.988-30.783-19.988,30.778a92.632,92.632,0,0,0-15.615-8.135,90.221,90.221,0,0,0-16.322-4.848,88.988,88.988,0,0,0-16.547-1.646h-.424a86.817,86.817,0,0,0-15.869,1.461,84.571,84.571,0,0,0-15.578,4.486,81.98,81.98,0,0,0-14.381,7.421,79.792,79.792,0,0,0-12.713,10.27,79.366,79.366,0,0,0-10.559,13.02,79.25,79.25,0,0,0-7.6,14.95,79.585,79.585,0,0,0-4.211,15.787,81.366,81.366,0,0,0-.928,16.153,84.3,84.3,0,0,0,2.236,16.059,86.243,86.243,0,0,0,5.289,15.479,88.918,88.918,0,0,0,8.234,14.448,89.8,89.8,0,0,0,11.07,12.934c1.316,1.272,2.676,2.509,4.039,3.675Z" transform="translate(18574.242 -2782.161)" fill="url(#linear-gradient-4)"/>
  </g>
</svg>
